<svg width="368" height="48" viewBox="0 0 368 48" fill="none" xmlns="http://www.w3.org/2000/svg">
<rect y="46" width="2" height="2" fill="#7A0C07"/>
<rect x="3" y="39" width="2" height="9" fill="#7A0C07"/>
<rect x="6" y="39" width="2" height="9" fill="#7A0C07"/>
<rect x="9" y="39" width="2" height="9" fill="#7A0C07"/>
<rect x="12" y="35" width="2" height="13" fill="#7A0C07"/>
<rect x="15" y="46" width="2" height="2" fill="#7A0C07"/>
<rect x="18" y="42" width="2" height="6" fill="#7A0C07"/>
<rect x="21" y="31" width="2" height="17" fill="#7A0C07"/>
<rect x="24" y="35" width="2" height="13" fill="#7A0C07"/>
<rect x="27" y="35" width="2" height="13" fill="#7A0C07"/>
<rect x="30" y="42" width="2" height="6" fill="#7A0C07"/>
<rect x="33" y="27" width="2" height="21" fill="#7A0C07"/>
<rect x="36" y="15" width="2" height="33" fill="#7A0C07"/>
<rect x="39" width="2" height="48" fill="#7A0C07"/>
<rect x="42" y="8" width="2" height="40" fill="#7A0C07"/>
<rect x="45" y="11" width="2" height="37" fill="#7A0C07"/>
<rect x="48" y="4" width="2" height="44" fill="#7A0C07"/>
<rect x="51" y="15" width="2" height="33" fill="#7A0C07"/>
<rect x="54" width="2" height="48" fill="#7A0C07"/>
<rect x="57" y="2" width="2" height="46" fill="#7A0C07"/>
<rect x="60" width="2" height="48" fill="#7A0C07"/>
<rect x="63" y="8" width="2" height="40" fill="#7A0C07"/>
<rect x="66" y="8" width="2" height="40" fill="#7A0C07"/>
<rect x="69" width="2" height="48" fill="#7A0C07"/>
<rect x="72" y="27" width="2" height="21" fill="#7A0C07"/>
<rect x="75" width="2" height="48" fill="#7A0C07"/>
<rect x="78" y="8" width="2" height="40" fill="#7A0C07"/>
<rect x="81" y="2" width="2" height="46" fill="#7A0C07"/>
<rect x="84" y="27" width="2" height="21" fill="#7A0C07"/>
<rect x="87" y="27" width="2" height="21" fill="#7A0C07"/>
<rect width="2" height="21" transform="matrix(-1 0 0 1 92 27)" fill="#7A0C07"/>
<rect width="2" height="21" transform="matrix(-1 0 0 1 95 27)" fill="#7A0C07"/>
<rect width="2" height="46" transform="matrix(-1 0 0 1 98 2)" fill="#7A0C07"/>
<rect width="2" height="40" transform="matrix(-1 0 0 1 101 8)" fill="#7A0C07"/>
<rect width="2" height="48" transform="matrix(-1 0 0 1 104 0)" fill="#7A0C07"/>
<rect width="2" height="21" transform="matrix(-1 0 0 1 107 27)" fill="#7A0C07"/>
<rect width="2" height="48" transform="matrix(-1 0 0 1 110 0)" fill="#7A0C07"/>
<rect width="2" height="40" transform="matrix(-1 0 0 1 113 8)" fill="#7A0C07"/>
<rect width="2" height="8" transform="matrix(-1 0 0 1 116 40)" fill="#7A0C07"/>
<rect width="2" height="9" transform="matrix(-1 0 0 1 119 39)" fill="#7A0C07"/>
<rect width="2" height="9" transform="matrix(-1 0 0 1 122 39)" fill="#7A0C07"/>
<rect width="2" height="9" transform="matrix(-1 0 0 1 125 39)" fill="#7A0C07"/>
<rect width="2" height="6" transform="matrix(-1 0 0 1 128 42)" fill="#7A0C07"/>
<rect width="2" height="9" transform="matrix(-1 0 0 1 131 39)" fill="#7A0C07"/>
<rect width="2" height="8" transform="matrix(-1 0 0 1 134 40)" fill="#7A0C07"/>
<rect width="2" height="8" transform="matrix(-1 0 0 1 137 40)" fill="#7A0C07"/>
<rect width="2" height="9" transform="matrix(-1 0 0 1 140 39)" fill="#7A0C07"/>
<rect width="2" height="6" transform="matrix(-1 0 0 1 143 42)" fill="#7A0C07"/>
<rect width="2" height="21" transform="matrix(-1 0 0 1 146 27)" fill="#7A0C07"/>
<rect width="2" height="21" transform="matrix(-1 0 0 1 149 27)" fill="#7A0C07"/>
<rect width="2" height="21" transform="matrix(-1 0 0 1 152 27)" fill="#7A0C07"/>
<rect width="2" height="35" transform="matrix(-1 0 0 1 155 13)" fill="#7A0C07"/>
<rect width="2" height="31" transform="matrix(-1 0 0 1 158 17)" fill="#7A0C07"/>
<rect width="2" height="37" transform="matrix(-1 0 0 1 161 11)" fill="#7A0C07"/>
<rect width="2" height="21" transform="matrix(-1 0 0 1 164 27)" fill="#7A0C07"/>
<rect width="2" height="37" transform="matrix(-1 0 0 1 167 11)" fill="#7A0C07"/>
<rect width="2" height="31" transform="matrix(-1 0 0 1 170 17)" fill="#7A0C07"/>
<rect width="2" height="31" transform="matrix(-1 0 0 1 173 17)" fill="#7A0C07"/>
<rect width="2" height="37" transform="matrix(-1 0 0 1 176 11)" fill="#7A0C07"/>
<rect width="2" height="35" transform="matrix(-1 0 0 1 179 13)" fill="#7A0C07"/>
<rect width="2" height="37" transform="matrix(-1 0 0 1 182 11)" fill="#7A0C07"/>
<rect width="2" height="25" transform="matrix(-1 0 0 1 185 23)" fill="#7A0C07"/>
<rect width="2" height="33" transform="matrix(-1 0 0 1 188 15)" fill="#7A0C07"/>
<rect width="2" height="37" transform="matrix(-1 0 0 1 191 11)" fill="#7A0C07"/>
<rect width="2" height="40" transform="matrix(-1 0 0 1 194 8)" fill="#7A0C07"/>
<rect width="2" height="48" transform="matrix(-1 0 0 1 197 0)" fill="#7A0C07"/>
<rect width="2" height="33" transform="matrix(-1 0 0 1 200 15)" fill="#7A0C07"/>
<rect width="2" height="21" transform="matrix(-1 0 0 1 203 27)" fill="#7A0C07"/>
<rect width="2" height="21" transform="matrix(-1 0 0 1 206 27)" fill="#7A0C07"/>
<rect width="2" height="21" transform="matrix(-1 0 0 1 209 27)" fill="#7A0C07"/>
<rect width="2" height="13" transform="matrix(-1 0 0 1 212 35)" fill="#7A0C07"/>
<rect width="2" height="11" transform="matrix(-1 0 0 1 215 37)" fill="#7A0C07"/>
<rect width="2" height="13" transform="matrix(-1 0 0 1 218 35)" fill="#7A0C07"/>
<rect width="2" height="21" transform="matrix(-1 0 0 1 221 27)" fill="#7A0C07"/>
<rect width="2" height="13" transform="matrix(-1 0 0 1 224 35)" fill="#7A0C07"/>
<rect width="2" height="11" transform="matrix(-1 0 0 1 227 37)" fill="#7A0C07"/>
<rect width="2" height="11" transform="matrix(-1 0 0 1 230 37)" fill="#7A0C07"/>
<rect width="2" height="13" transform="matrix(-1 0 0 1 233 35)" fill="#7A0C07"/>
<rect width="2" height="13" transform="matrix(-1 0 0 1 236 35)" fill="#7A0C07"/>
<rect width="2" height="13" transform="matrix(-1 0 0 1 239 35)" fill="#7A0C07"/>
<rect width="2" height="9" transform="matrix(-1 0 0 1 242 39)" fill="#7A0C07"/>
<rect width="2" height="11" transform="matrix(-1 0 0 1 245 37)" fill="#7A0C07"/>
<rect width="2" height="9" transform="matrix(-1 0 0 1 248 39)" fill="#7A0C07"/>
<rect width="2" height="11" transform="matrix(-1 0 0 1 251 37)" fill="#7A0C07"/>
<rect width="2" height="6" transform="matrix(-1 0 0 1 254 42)" fill="#7A0C07"/>
<rect width="2" height="4" transform="matrix(-1 0 0 1 257 44)" fill="#7A0C07"/>
<rect width="2" height="21" transform="matrix(-1 0 0 1 260 27)" fill="#7A0C07"/>
<rect width="2" height="21" transform="matrix(-1 0 0 1 263 27)" fill="#7A0C07"/>
<rect width="2" height="21" transform="matrix(-1 0 0 1 266 27)" fill="#7A0C07"/>
<rect width="2" height="6" transform="matrix(-1 0 0 1 269 42)" fill="#7A0C07"/>
<rect width="2" height="6" transform="matrix(-1 0 0 1 272 42)" fill="#7A0C07"/>
<rect width="2" height="4" transform="matrix(-1 0 0 1 275 44)" fill="#7A0C07"/>
<rect width="2" height="31" transform="matrix(-1 0 0 1 278 17)" fill="#7A0C07"/>
<rect width="2" height="48" transform="matrix(-1 0 0 1 281 0)" fill="#7A0C07"/>
<rect width="2" height="40" transform="matrix(-1 0 0 1 284 8)" fill="#7A0C07"/>
<rect width="2" height="40" transform="matrix(-1 0 0 1 287 8)" fill="#7A0C07"/>
<rect width="2" height="48" transform="matrix(-1 0 0 1 290 0)" fill="#7A0C07"/>
<rect width="2" height="46" transform="matrix(-1 0 0 1 293 2)" fill="#7A0C07"/>
<rect width="2" height="48" transform="matrix(-1 0 0 1 296 0)" fill="#7A0C07"/>
<rect width="2" height="35" transform="matrix(-1 0 0 1 299 13)" fill="#7A0C07"/>
<rect width="2" height="46" transform="matrix(-1 0 0 1 302 2)" fill="#7A0C07"/>
<rect width="2" height="25" transform="matrix(-1 0 0 1 305 23)" fill="#7A0C07"/>
<rect width="2" height="27" transform="matrix(-1 0 0 1 308 21)" fill="#7A0C07"/>
<rect width="2" height="17" transform="matrix(-1 0 0 1 311 31)" fill="#7A0C07"/>
<rect width="2" height="11" transform="matrix(-1 0 0 1 314 37)" fill="#7A0C07"/>
<rect width="2" height="11" transform="matrix(-1 0 0 1 317 37)" fill="#7A0C07"/>
<rect width="2" height="11" transform="matrix(-1 0 0 1 320 37)" fill="#7A0C07"/>
<rect width="2" height="11" transform="matrix(-1 0 0 1 323 37)" fill="#7A0C07"/>
<rect width="2" height="16" transform="matrix(-1 0 0 1 326 32)" fill="#7A0C07"/>
<rect width="2" height="14" transform="matrix(-1 0 0 1 329 34)" fill="#7A0C07"/>
<rect width="2" height="17" transform="matrix(-1 0 0 1 332 31)" fill="#7A0C07"/>
<rect width="2" height="11" transform="matrix(-1 0 0 1 335 37)" fill="#7A0C07"/>
<rect width="2" height="17" transform="matrix(-1 0 0 1 338 31)" fill="#7A0C07"/>
<rect width="2" height="14" transform="matrix(-1 0 0 1 341 34)" fill="#7A0C07"/>
<rect width="2" height="4" transform="matrix(-1 0 0 1 344 44)" fill="#7A0C07"/>
<rect width="2" height="6" transform="matrix(-1 0 0 1 347 42)" fill="#7A0C07"/>
<rect width="2" height="6" transform="matrix(-1 0 0 1 350 42)" fill="#7A0C07"/>
<rect width="2" height="6" transform="matrix(-1 0 0 1 353 42)" fill="#7A0C07"/>
<rect width="2" height="4" transform="matrix(-1 0 0 1 356 44)" fill="#7A0C07"/>
<rect width="2" height="6" transform="matrix(-1 0 0 1 359 42)" fill="#7A0C07"/>
<rect width="2" height="4" transform="matrix(-1 0 0 1 362 44)" fill="#7A0C07"/>
<rect width="2" height="4" transform="matrix(-1 0 0 1 365 44)" fill="#7A0C07"/>
<rect width="2" height="6" transform="matrix(-1 0 0 1 368 42)" fill="#7A0C07"/>
</svg>
