<svg width="15" height="14" viewBox="0 0 15 14" fill="none" xmlns="http://www.w3.org/2000/svg">
<path d="M14.5 7C14.5 8.38447 14.0895 9.73785 13.3203 10.889C12.5511 12.0401 11.4579 12.9373 10.1788 13.4672C8.8997 13.997 7.49223 14.1356 6.13437 13.8655C4.7765 13.5954 3.52922 12.9287 2.55025 11.9497C1.57128 10.9708 0.9046 9.7235 0.634503 8.36563C0.364406 7.00777 0.50303 5.6003 1.03284 4.32122C1.56266 3.04213 2.45986 1.94888 3.61101 1.17971C4.76215 0.410543 6.11553 -1.65096e-08 7.5 0V1.4C6.39242 1.4 5.30972 1.72843 4.38881 2.34377C3.46789 2.95911 2.75013 3.83371 2.32627 4.85697C1.90242 5.88024 1.79153 7.00621 2.0076 8.09251C2.22368 9.1788 2.75703 10.1766 3.5402 10.9598C4.32338 11.743 5.3212 12.2763 6.40749 12.4924C7.49379 12.7085 8.61976 12.5976 9.64303 12.1737C10.6663 11.7499 11.5409 11.0321 12.1562 10.1112C12.7716 9.19028 13.1 8.10758 13.1 7H14.5Z" fill="black"/>
</svg>
