<svg width="51" height="24" viewBox="0 0 51 24" fill="none" xmlns="http://www.w3.org/2000/svg">
<path fill-rule="evenodd" clip-rule="evenodd" d="M49.7428 0.750488V4.79462H49.4861C49.3898 4.15269 49.1651 3.99221 48.5553 3.99221H30.2283V10.251H43.5162C44.126 10.251 44.3186 10.0584 44.4148 9.41647H44.6716V14.2309H44.4148C44.3186 13.589 44.126 13.3964 43.5162 13.3964H30.2283V20.0082H48.5553C49.1651 20.0082 49.3898 19.8478 49.4861 19.2058H49.7428V23.25H19.9364V23.0253C20.5783 22.929 20.7709 22.7043 20.7709 22.0945V13.6853H7.45092C6.8411 13.6853 6.64852 13.8458 6.55223 14.4877H6.29546V9.70534H6.55223C6.64852 10.3473 6.90529 10.5398 7.45092 10.5398H20.7709V3.99221H2.41181C1.80198 3.99221 1.60941 4.15269 1.51312 4.79462H1.25635V0.750488H49.7428ZM24.7501 22.2749C24.7501 22.6063 25.0187 22.8749 25.3501 22.8749H25.6501C25.9814 22.8749 26.2501 22.6063 26.2501 22.2749C26.2501 15.4251 26.2501 8.57392 26.2501 1.72494C26.2501 1.39357 25.9814 1.12494 25.6501 1.12494H25.3501C25.0187 1.12494 24.7501 1.39357 24.7501 1.72494C24.7501 8.57449 24.7501 15.425 24.7501 22.2749Z" fill="white"/>
</svg>
