<svg width="113" height="11" viewBox="0 0 113 11" fill="none" xmlns="http://www.w3.org/2000/svg">
<path d="M105.17 2.17188V0.609375H112.722V2.17188H109.872V10.3956H108.035V2.17188H105.17Z" fill="black"/>
<path d="M99.4447 7.24181C99.5133 8.44796 100.377 9.10585 101.555 9.10585C102.625 9.10585 103.324 8.65355 103.324 7.73523C103.324 6.73468 102.46 6.50167 101.213 6.13161C99.5955 5.63818 97.9919 5.08993 97.9782 3.14365C97.9508 1.2659 99.6777 0.375 101.473 0.375C103.433 0.375 104.845 1.29332 105.051 3.4589H103.214C103.036 2.38981 102.488 1.89639 101.432 1.89639C100.514 1.89639 99.7874 2.26646 99.7874 3.17107C99.7874 3.97973 100.582 4.3498 101.843 4.71987C103.502 5.19958 105.133 5.65189 105.133 7.73523C105.133 9.73634 103.365 10.6272 101.555 10.6272C99.4173 10.6272 97.7315 9.55816 97.567 7.24181H99.4447Z" fill="black"/>
<path d="M90.423 10.3956H88.5178L92.0677 0.609375H94.384L97.9202 10.3956H95.9877L95.0968 7.83255H91.3413L90.423 10.3956ZM91.8347 6.36598H94.5896L93.219 2.29524H93.1916L91.8347 6.36598Z" fill="black"/>
<path d="M81.718 0.609375H83.5546V8.8331H88.0914V10.3956H81.718V0.609375Z" fill="black"/>
<path d="M80.7032 0.609375V2.17188H76.1801V4.69383H80.4153V6.21521H76.1801V8.8331H80.7443V10.3956H74.3435V0.609375H80.7032Z" fill="black"/>
<path d="M71.5325 0.609375H73.3691V10.3956H71.5325V6.27004H67.4069V10.3956H65.5703V0.609375H67.4069V4.70753H71.5325V0.609375Z" fill="black"/>
<path d="M57.0625 2.17188V0.609375H64.6146V2.17188H61.7637V10.3956H59.9271V2.17188H57.0625Z" fill="black"/>
<path d="M49.9877 2.17188V0.609375H57.5398V2.17188H54.6889V10.3956H52.8523V2.17188H49.9877Z" fill="black"/>
<path d="M44.2643 7.24181C44.3328 8.44796 45.1963 9.10585 46.375 9.10585C47.4441 9.10585 48.1431 8.65355 48.1431 7.73523C48.1431 6.73468 47.2797 6.50167 46.0324 6.13161C44.4151 5.63818 42.8114 5.08993 42.7977 3.14365C42.7703 1.2659 44.4973 0.375 46.2928 0.375C48.2528 0.375 49.6645 1.29332 49.8701 3.4589H48.0335C47.8553 2.38981 47.3071 1.89639 46.2517 1.89639C45.3334 1.89639 44.6069 2.26646 44.6069 3.17107C44.6069 3.97973 45.4019 4.3498 46.6629 4.71987C48.3213 5.19958 49.9524 5.65189 49.9524 7.73523C49.9524 9.73634 48.1843 10.6272 46.375 10.6272C44.2369 10.6272 42.551 9.55816 42.3865 7.24181H44.2643Z" fill="black"/>
<path d="M34.6006 10.3819V0.609375H38.3698C40.6176 0.609375 41.8923 1.7607 41.8923 3.39174C41.8923 4.84459 41.0014 5.70809 39.9597 5.98221C40.8643 6.24263 41.1796 6.99647 41.5085 8.06555C41.7826 8.95646 42.0019 9.68289 42.3446 10.3134V10.3956H40.4668C40.1516 9.81995 39.9186 8.95646 39.6308 8.14779C39.3018 7.24318 38.8632 6.6264 37.6571 6.6264H36.4372V10.3819H34.6006ZM36.4372 5.14613H38.2738C39.4252 5.14613 40.0831 4.52935 40.0831 3.56992C40.0831 2.73384 39.5074 2.10335 38.2327 2.10335H36.4372V5.14613Z" fill="black"/>
<path d="M31.7947 0.609375H33.6313V10.3956H31.7947V0.609375Z" fill="black"/>
<path d="M24.6018 10.3956V0.609375H30.8381V2.17188H26.4384V4.69383H30.5092V6.21521H26.4384V10.3956H24.6018Z" fill="black"/>
<path d="M23.6181 0.609375V2.17188H19.095V4.69383H23.3302V6.21521H19.095V8.8331H23.6592V10.3956H17.2584V0.609375H23.6181Z" fill="black"/>
<path d="M14.4507 0.609375H16.2873V10.3956H14.4507V6.27004H10.3251V10.3956H8.48849V0.609375H10.3251V4.70753H14.4507V0.609375Z" fill="black"/>
<path d="M0 2.17188L0 0.609375H7.55212V2.17188H4.70123V10.3956H2.8646V2.17188H0Z" fill="black"/>
</svg>
