<svg width="19" height="11" viewBox="0 0 19 11" fill="none" xmlns="http://www.w3.org/2000/svg">
<path d="M15.5503 8.68506C17.056 7.89728 17.8091 6.90075 17.8091 5.94179C17.8091 5.12585 17.2691 4.28514 16.1642 3.55829C15.0954 2.85513 13.5735 2.31582 11.7913 2.07189L11.7913 3.07188L10.5502 3.07188L10.5502 1.42299e-06L11.7913 1.53148e-06L11.7913 1.02588L11.7924 1.01725C13.7443 1.26684 15.4758 1.85519 16.735 2.68357C17.9842 3.50537 18.8506 4.62526 18.8506 5.94179C18.8506 7.48762 17.6632 8.75876 16.0316 9.61245C14.3746 10.4794 12.1216 11 9.66156 11C7.20151 11 4.94852 10.4794 3.29152 9.61245C1.65988 8.75876 0.472537 7.48762 0.472537 5.94179C0.472538 4.62526 1.33895 3.50537 2.58814 2.68357C3.82768 1.86813 5.5248 1.28528 7.43944 1.0292L7.43944 1.15103e-06L8.68048 1.25953e-06L8.68048 3.07188L7.43944 3.07188L7.43944 2.08483C5.69705 2.33456 4.20923 2.86732 3.1589 3.55829C2.05405 4.28514 1.51401 5.12585 1.51401 5.94179C1.51401 6.90075 2.26713 7.89728 3.77279 8.68506C5.2531 9.45957 7.33425 9.95425 9.66156 9.95425C11.9889 9.95426 14.07 9.45957 15.5503 8.68506Z" fill="black"/>
</svg>
